<svg xmlns="http://www.w3.org/2000/svg" width="46" height="53" fill="none" viewBox="0 0 46 53">
  <path stroke="#4949FF" stroke-linecap="round" stroke-linejoin="round" stroke-width="7" d="M32 24V13.23a9.1 9.1 0 0 0-2.782-6.526A9.642 9.642 0 0 0 22.5 4v0a9.64 9.64 0 0 0-6.717 2.704A9.1 9.1 0 0 0 13 13.23V24" opacity=".6"/>
  <path fill="#3747D6" d="M0 28c0-2.652 1.039-5.196 2.887-7.071A9.787 9.787 0 0 1 9.857 18h26.286a9.787 9.787 0 0 1 6.97 2.929A10.074 10.074 0 0 1 46 28v15c0 2.652-1.038 5.196-2.887 7.071A9.787 9.787 0 0 1 36.143 53H9.857a9.787 9.787 0 0 1-6.97-2.929A10.074 10.074 0 0 1 0 43V28Z"/>
</svg>
