<svg xmlns="http://www.w3.org/2000/svg" width="200" height="200" fill="none" viewBox="0 0 200 200">
  <path fill="#F1F1F1" d="M100 0C44.8 0 0 44.8 0 100s44.8 100 100 100 100-44.8 100-100S155.2 0 100 0Zm74.6 71.2-27.8 11.5c-5.1-13.6-15.8-24.4-29.5-29.4l11.5-27.8c21 8 37.7 24.7 45.8 45.7ZM100 130c-16.6 0-30-13.4-30-30s13.4-30 30-30 30 13.4 30 30-13.4 30-30 30ZM71.3 25.4 83 53.2c-13.8 5-24.7 15.9-29.8 29.7L25.4 71.3c8.1-21.1 24.8-37.8 45.9-45.9ZM25.4 128.7l27.8-11.5c5.1 13.8 15.9 24.6 29.7 29.6l-11.7 27.8c-21-8.1-37.7-24.8-45.8-45.9Zm103.4 45.9-11.5-27.8c13.7-5.1 24.5-15.9 29.5-29.7l27.8 11.7c-8.1 21-24.8 37.7-45.8 45.8Z"/>
</svg>
