<svg width="258" height="259" viewBox="0 0 258 259" fill="none" xmlns="http://www.w3.org/2000/svg">
<rect x="2.5" y="2.5" width="253" height="254" rx="7.5" fill="#3747D6" stroke="#DCDCDC" stroke-width="5"/>
<path opacity="0.6" d="M150 120V96.3077C150 90.9218 147.788 85.7564 143.849 81.948C139.911 78.1396 134.57 76 129 76V76C123.43 76 118.089 78.1396 114.151 81.948C110.212 85.7564 108 90.9218 108 96.3077V120" stroke="#D5D5FF" stroke-width="15" stroke-linecap="round" stroke-linejoin="round"/>
<path d="M79 129.429C79 123.745 81.2576 118.295 85.2763 114.276C89.2949 110.258 94.7454 108 100.429 108H157.571C163.255 108 168.705 110.258 172.724 114.276C176.742 118.295 179 123.745 179 129.429V161.571C179 167.255 176.742 172.705 172.724 176.724C168.705 180.742 163.255 183 157.571 183H100.429C94.7454 183 89.2949 180.742 85.2763 176.724C81.2576 172.705 79 167.255 79 161.571V129.429Z" fill="#D0D0FF"/>
</svg>
